<svg width="470" height="92" viewBox="0 0 470 92" fill="none" xmlns="http://www.w3.org/2000/svg">
<path d="M137.9 59.4L138.8 58.75C139.933 58.0833 140.733 57.75 141.2 57.75C142.233 57.75 143.35 58.6833 144.55 60.55C145.283 61.7167 145.65 62.65 145.65 63.35C145.65 64.05 145.417 64.6333 144.95 65.1C144.517 65.5667 144 65.9833 143.4 66.35C142.8 66.7167 142.217 67.0667 141.65 67.4C141.117 67.7333 140 68.1667 138.3 68.7C136.6 69.2333 134.95 69.5 133.35 69.5C131.783 69.5 130.183 69.3 128.55 68.9C126.95 68.4667 125.283 67.7667 123.55 66.8C121.85 65.8 120.317 64.6 118.95 63.2C117.583 61.7667 116.45 59.95 115.55 57.75C114.683 55.5167 114.25 53.1 114.25 50.5C114.25 47.9 114.683 45.55 115.55 43.45C116.417 41.3167 117.517 39.5667 118.85 38.2C120.217 36.8 121.767 35.6333 123.5 34.7C126.767 32.9 130.05 32 133.35 32C134.917 32 136.5 32.25 138.1 32.75C139.733 33.2167 140.967 33.7 141.8 34.2L143 34.9C143.6 35.2667 144.067 35.5667 144.4 35.8C145.267 36.5 145.7 37.3 145.7 38.2C145.7 39.0667 145.35 39.9833 144.65 40.95C143.35 42.75 142.183 43.65 141.15 43.65C140.55 43.65 139.7 43.2833 138.6 42.55C137.2 41.4167 135.333 40.85 133 40.85C130.833 40.85 128.7 41.6 126.6 43.1C125.6 43.8333 124.767 44.8667 124.1 46.2C123.433 47.5333 123.1 49.05 123.1 50.75C123.1 52.4167 123.433 53.9167 124.1 55.25C124.767 56.5833 125.617 57.6333 126.65 58.4C128.683 59.8667 130.8 60.6 133 60.6C134.033 60.6 135 60.4667 135.9 60.2C136.833 59.9333 137.5 59.6667 137.9 59.4ZM171.586 33.7C171.852 33.2 172.302 32.85 172.936 32.65C173.569 32.45 174.369 32.35 175.336 32.35C176.302 32.35 177.069 32.4333 177.636 32.6C178.202 32.7667 178.636 32.9667 178.936 33.2C179.236 33.4333 179.469 33.7667 179.636 34.2C179.802 34.7667 179.886 35.6333 179.886 36.8V64.55C179.886 65.3167 179.852 65.9 179.786 66.3C179.752 66.6667 179.602 67.1 179.336 67.6C178.869 68.5 177.569 68.95 175.436 68.95C173.102 68.95 171.736 68.3333 171.336 67.1C171.136 66.5333 171.036 65.6667 171.036 64.5V54.35H157.786V64.55C157.786 65.3167 157.752 65.9 157.686 66.3C157.652 66.6667 157.502 67.1 157.236 67.6C156.769 68.5 155.469 68.95 153.336 68.95C151.002 68.95 149.636 68.3333 149.236 67.1C149.036 66.5333 148.936 65.6667 148.936 64.5V36.75C148.936 35.9833 148.952 35.4167 148.986 35.05C149.052 34.65 149.219 34.2 149.486 33.7C149.952 32.8 151.252 32.35 153.386 32.35C155.719 32.35 157.102 32.9667 157.536 34.2C157.702 34.7667 157.786 35.6333 157.786 36.8V47H171.036V36.75C171.036 35.9833 171.052 35.4167 171.086 35.05C171.152 34.65 171.319 34.2 171.586 33.7ZM201.096 31.9C206.03 31.9 210.313 33.6833 213.946 37.25C217.58 40.8167 219.396 45.25 219.396 50.55C219.396 55.8167 217.663 60.3167 214.196 64.05C210.73 67.75 206.463 69.6 201.396 69.6C196.33 69.6 192.013 67.7667 188.446 64.1C184.913 60.4333 183.146 56.0667 183.146 51C183.146 48.2333 183.646 45.65 184.646 43.25C185.646 40.8167 186.98 38.7833 188.646 37.15C190.313 35.5167 192.23 34.2333 194.396 33.3C196.563 32.3667 198.796 31.9 201.096 31.9ZM191.996 50.75C191.996 53.7167 192.946 56.1333 194.846 58C196.78 59.8333 198.93 60.75 201.296 60.75C203.663 60.75 205.796 59.85 207.696 58.05C209.596 56.25 210.546 53.8333 210.546 50.8C210.546 47.7667 209.58 45.3333 207.646 43.5C205.746 41.6667 203.613 40.75 201.246 40.75C198.88 40.75 196.746 41.6833 194.846 43.55C192.946 45.3833 191.996 47.7833 191.996 50.75ZM250.716 62.8C251.216 64 251.466 64.8667 251.466 65.4C251.466 66.6667 250.433 67.7333 248.366 68.6C247.299 69.0667 246.433 69.3 245.766 69.3C245.133 69.3 244.599 69.15 244.166 68.85C243.766 68.5167 243.466 68.1833 243.266 67.85C242.933 67.2167 241.633 64.2 239.366 58.8L237.816 58.9H231.516V64.55C231.516 65.3167 231.483 65.9 231.416 66.3C231.383 66.6667 231.233 67.1 230.966 67.6C230.499 68.5 229.199 68.95 227.066 68.95C224.733 68.95 223.366 68.3333 222.966 67.1C222.766 66.5333 222.666 65.6667 222.666 64.5V36.75C222.666 35.9833 222.683 35.4167 222.716 35.05C222.783 34.65 222.949 34.2 223.216 33.7C223.683 32.8 224.983 32.35 227.116 32.35H237.916C240.849 32.35 243.699 33.4167 246.466 35.55C247.799 36.5833 248.899 37.9833 249.766 39.75C250.633 41.5167 251.066 43.4833 251.066 45.65C251.066 49.4167 249.816 52.5167 247.316 54.95C248.049 56.7167 249.183 59.3333 250.716 62.8ZM231.516 50.05H237.916C238.883 50.05 239.849 49.6833 240.816 48.95C241.783 48.2167 242.266 47.1167 242.266 45.65C242.266 44.1833 241.783 43.0833 240.816 42.35C239.849 41.5833 238.849 41.2 237.816 41.2H231.516V50.05ZM263.059 60.15H278.459C279.226 60.15 279.792 60.1833 280.159 60.25C280.559 60.2833 281.009 60.4333 281.509 60.7C282.409 61.1667 282.859 62.4667 282.859 64.6C282.859 66.9333 282.242 68.3 281.009 68.7C280.442 68.9 279.576 69 278.409 69H258.609C256.276 69 254.909 68.3667 254.509 67.1C254.309 66.5667 254.209 65.7167 254.209 64.55V36.75C254.209 35.05 254.526 33.9 255.159 33.3C255.792 32.6667 256.992 32.35 258.759 32.35H278.459C279.226 32.35 279.792 32.3833 280.159 32.45C280.559 32.4833 281.009 32.6333 281.509 32.9C282.409 33.3667 282.859 34.6667 282.859 36.8C282.859 39.1333 282.242 40.5 281.009 40.9C280.442 41.1 279.576 41.2 278.409 41.2H263.059V46.25H272.959C273.726 46.25 274.292 46.2833 274.659 46.35C275.059 46.3833 275.509 46.5333 276.009 46.8C276.909 47.2667 277.359 48.5667 277.359 50.7C277.359 53.0333 276.726 54.4 275.459 54.8C274.892 55 274.026 55.1 272.859 55.1H263.059V60.15ZM321.64 59.4L322.54 58.75C323.674 58.0833 324.474 57.75 324.94 57.75C325.974 57.75 327.09 58.6833 328.29 60.55C329.024 61.7167 329.39 62.65 329.39 63.35C329.39 64.05 329.157 64.6333 328.69 65.1C328.257 65.5667 327.74 65.9833 327.14 66.35C326.54 66.7167 325.957 67.0667 325.39 67.4C324.857 67.7333 323.74 68.1667 322.04 68.7C320.34 69.2333 318.69 69.5 317.09 69.5C315.524 69.5 313.924 69.3 312.29 68.9C310.69 68.4667 309.024 67.7667 307.29 66.8C305.59 65.8 304.057 64.6 302.69 63.2C301.324 61.7667 300.19 59.95 299.29 57.75C298.424 55.5167 297.99 53.1 297.99 50.5C297.99 47.9 298.424 45.55 299.29 43.45C300.157 41.3167 301.257 39.5667 302.59 38.2C303.957 36.8 305.507 35.6333 307.24 34.7C310.507 32.9 313.79 32 317.09 32C318.657 32 320.24 32.25 321.84 32.75C323.474 33.2167 324.707 33.7 325.54 34.2L326.74 34.9C327.34 35.2667 327.807 35.5667 328.14 35.8C329.007 36.5 329.44 37.3 329.44 38.2C329.44 39.0667 329.09 39.9833 328.39 40.95C327.09 42.75 325.924 43.65 324.89 43.65C324.29 43.65 323.44 43.2833 322.34 42.55C320.94 41.4167 319.074 40.85 316.74 40.85C314.574 40.85 312.44 41.6 310.34 43.1C309.34 43.8333 308.507 44.8667 307.84 46.2C307.174 47.5333 306.84 49.05 306.84 50.75C306.84 52.4167 307.174 53.9167 307.84 55.25C308.507 56.5833 309.357 57.6333 310.39 58.4C312.424 59.8667 314.54 60.6 316.74 60.6C317.774 60.6 318.74 60.4667 319.64 60.2C320.574 59.9333 321.24 59.6667 321.64 59.4ZM355.326 33.7C355.592 33.2 356.042 32.85 356.676 32.65C357.309 32.45 358.109 32.35 359.076 32.35C360.042 32.35 360.809 32.4333 361.376 32.6C361.942 32.7667 362.376 32.9667 362.676 33.2C362.976 33.4333 363.209 33.7667 363.376 34.2C363.542 34.7667 363.626 35.6333 363.626 36.8V64.55C363.626 65.3167 363.592 65.9 363.526 66.3C363.492 66.6667 363.342 67.1 363.076 67.6C362.609 68.5 361.309 68.95 359.176 68.95C356.842 68.95 355.476 68.3333 355.076 67.1C354.876 66.5333 354.776 65.6667 354.776 64.5V54.35H341.526V64.55C341.526 65.3167 341.492 65.9 341.426 66.3C341.392 66.6667 341.242 67.1 340.976 67.6C340.509 68.5 339.209 68.95 337.076 68.95C334.742 68.95 333.376 68.3333 332.976 67.1C332.776 66.5333 332.676 65.6667 332.676 64.5V36.75C332.676 35.9833 332.692 35.4167 332.726 35.05C332.792 34.65 332.959 34.2 333.226 33.7C333.692 32.8 334.992 32.35 337.126 32.35C339.459 32.35 340.842 32.9667 341.276 34.2C341.442 34.7667 341.526 35.6333 341.526 36.8V47H354.776V36.75C354.776 35.9833 354.792 35.4167 354.826 35.05C354.892 34.65 355.059 34.2 355.326 33.7ZM388.787 34.95L402.287 62.85C402.853 63.9833 403.137 64.8333 403.137 65.4C403.137 66.6 402.17 67.6833 400.237 68.65C399.103 69.2167 398.203 69.5 397.537 69.5C396.903 69.5 396.37 69.35 395.937 69.05C395.537 68.75 395.237 68.4333 395.037 68.1C394.87 67.7667 394.62 67.2667 394.287 66.6L391.687 61.2H377.837L375.237 66.6C374.903 67.2667 374.637 67.75 374.437 68.05C374.27 68.35 373.97 68.6667 373.537 69C373.137 69.3 372.603 69.45 371.937 69.45C371.303 69.45 370.42 69.1667 369.287 68.6C367.353 67.6667 366.387 66.6 366.387 65.4C366.387 64.8333 366.67 63.9833 367.237 62.85L380.737 34.9C381.103 34.1333 381.653 33.5167 382.387 33.05C383.153 32.5833 383.953 32.35 384.787 32.35C386.587 32.35 387.92 33.2167 388.787 34.95ZM384.737 46.95L381.437 53.8H388.087L384.737 46.95ZM433.919 62.8C434.419 64 434.669 64.8667 434.669 65.4C434.669 66.6667 433.636 67.7333 431.569 68.6C430.502 69.0667 429.636 69.3 428.969 69.3C428.336 69.3 427.802 69.15 427.369 68.85C426.969 68.5167 426.669 68.1833 426.469 67.85C426.136 67.2167 424.836 64.2 422.569 58.8L421.019 58.9H414.719V64.55C414.719 65.3167 414.686 65.9 414.619 66.3C414.586 66.6667 414.436 67.1 414.169 67.6C413.702 68.5 412.402 68.95 410.269 68.95C407.936 68.95 406.569 68.3333 406.169 67.1C405.969 66.5333 405.869 65.6667 405.869 64.5V36.75C405.869 35.9833 405.886 35.4167 405.919 35.05C405.986 34.65 406.152 34.2 406.419 33.7C406.886 32.8 408.186 32.35 410.319 32.35H421.119C424.052 32.35 426.902 33.4167 429.669 35.55C431.002 36.5833 432.102 37.9833 432.969 39.75C433.836 41.5167 434.269 43.4833 434.269 45.65C434.269 49.4167 433.019 52.5167 430.519 54.95C431.252 56.7167 432.386 59.3333 433.919 62.8ZM414.719 50.05H421.119C422.086 50.05 423.052 49.6833 424.019 48.95C424.986 48.2167 425.469 47.1167 425.469 45.65C425.469 44.1833 424.986 43.0833 424.019 42.35C423.052 41.5833 422.052 41.2 421.019 41.2H414.719V50.05ZM437.81 32.3H465.61C466.677 32.3 467.46 32.4333 467.96 32.7C468.46 32.9333 468.793 33.3167 468.96 33.85C469.127 34.3833 469.21 35.0833 469.21 35.95C469.21 36.8167 469.127 37.5167 468.96 38.05C468.793 38.55 468.51 38.9 468.11 39.1C467.51 39.4 466.66 39.55 465.56 39.55H456.01V64.7C456.01 65.4667 455.977 66.0333 455.91 66.4C455.877 66.7667 455.727 67.2 455.46 67.7C455.227 68.1667 454.793 68.5 454.16 68.7C453.527 68.9 452.693 69 451.66 69C450.627 69 449.793 68.9 449.16 68.7C448.56 68.5 448.127 68.1667 447.86 67.7C447.627 67.2 447.477 66.7667 447.41 66.4C447.377 66 447.36 65.4167 447.36 64.65V39.55H437.76C436.693 39.55 435.91 39.4333 435.41 39.2C434.91 38.9333 434.577 38.5333 434.41 38C434.243 37.4667 434.16 36.7667 434.16 35.9C434.16 35.0333 434.243 34.35 434.41 33.85C434.577 33.3167 434.86 32.95 435.26 32.75C435.86 32.45 436.71 32.3 437.81 32.3Z" fill="white"/>
<path d="M86 47C86 70.196 67.196 89 44 89M44 5C56.9149 5 68.4683 10.8292 76.1727 20M5.8083 29.5C3.3632 34.8274 2 40.7545 2 47C2 55.4908 4.51953 63.393 8.85172 70" stroke="#08B2D8" stroke-width="3" stroke-linecap="round"/>
<path d="M43.3342 47.0187L55.0025 61.6376C55.0025 61.6376 52.7225 75.4518 44.6754 81.8894C36.6283 88.193 9 86.4494 9 86.4494C9 86.4494 9.40235 83.3647 10.4753 78.9388L23.0824 63.9176C23.6189 63.247 22.9483 62.3082 22.1436 62.7105L14.0965 65.6611C16.1083 60.0282 18.5224 54.9317 21.473 52.5176C29.5201 46.0799 43.3342 47.0187 43.3342 47.0187ZM94.2991 22.2069C95.1038 23.0116 94.8356 24.3528 93.8968 25.1575L62.7814 49.0305L67.3414 54.7976C68.012 55.6023 67.6096 56.9435 66.5367 57.0776L58.6237 58.8211L46.9554 44.2022L50.4425 36.8257C50.8448 35.8869 52.186 35.6187 52.8566 36.5575L57.4166 42.3246L88.6661 18.4516C89.605 17.6469 90.9462 17.9151 91.6167 18.8539L94.2991 22.2069Z" fill="#F0AC25"/>
<path d="M17 6.66667L21.1667 15.8333L30.3333 20L21.1667 24.1667L17 33.3333L12.8333 24.1667L3.66666 20L12.8333 15.8333L17 6.66667ZM17 14.7167L15.3333 18.3333L11.7167 20L15.3333 21.6667L17 25.2833L18.6667 21.6667L22.2833 20L18.6667 18.3333L17 14.7167ZM33.6667 15L31.5667 10.4333L27 8.33333L31.5667 6.25L33.6667 1.66667L35.75 6.25L40.3333 8.33333L35.75 10.4333L33.6667 15ZM33.6667 38.3333L31.5667 33.7667L27 31.6667L31.5667 29.5833L33.6667 25L35.75 29.5833L40.3333 31.6667L35.75 33.7667L33.6667 38.3333Z" fill="white"/>
</svg>
